<?xml version="1.0" encoding="utf-8" standalone="yes"?>
<!DOCTYPE svg PUBLIC "-//W3C//DTD SVG 1.1//EN" "http://www.w3.org/Graphics/SVG/1.1/DTD/svg11.dtd">
<svg
  xmlns="http://www.w3.org/2000/svg"
  xmlns:xlink="http://www.w3.org/1999/xlink"
  xmlns:dc="http://purl.org/dc/elements/1.1/"
  xmlns:cc="http://web.resource.org/cc/"
  xmlns:rdf="http://www.w3.org/1999/02/22-rdf-syntax-ns#"
  xmlns:sodipodi="http://sodipodi.sourceforge.net/DTD/sodipodi-0.dtd"
  xmlns:inkscape="http://www.inkscape.org/namespaces/inkscape"
  height="260px"
  style="zoom: 1;"
  id="svg_document"
  width="450px"
  baseProfile="full"
  version="1.1"
  preserveAspectRatio="xMidYMid meet"
  enable-background="true"
  viewBox="0 0 450 260">
  <defs id="defs1">
    <marker id="arrow" refX="8" markerHeight="7" markerWidth="9" stroke-dasharray="0,0" markerUnits="strokeWidth" d="" orient="auto" viewBox="0 0 16 12" overflow="visible" refY="4">
      <path stroke="#000" id="arrow16" stroke-width="nonepx" d="M1,1 L1,7 L9,4 L1,1 L1,7" fill="$000" transform=""></path>
    </marker>
    <style type="text/css">
      #MyRect {
        stroke: black;
        fill: red;
      }
      .txt20 {
        stroke: none;
        font-family: Helvetica;
        fill: #000000;
        font-size: 20px;
        stroke-width: 1px;
        text-anchor: middle;
        text-rendering: geometricPrecision;
      }
      .txt16 {
        stroke: none;
        font-family: Helvetica;
        fill: #000000;
        font-size: 16px;
        stroke-width: 1px;
        text-anchor: middle;
        text-rendering: geometricPrecision;
      }
      .txt12 {
        stroke: none;
        font-family: Helvetica;
        fill: #000000;
        font-size: 12px;
        stroke-width: 1px;
        text-anchor: middle;
        text-rendering: geometricPrecision;
      }
      .mypath {
        stroke: #000000;
        stroke-width: 2px;
        fill: none;
      }
      .myline {
        stroke: #000000;
        stroke-width: 2px;
      }
      .circ10 {
        stroke: #000000;
        stroke-width: nonepx;
        fill: #ffdddd;
        r: 10px;
      }
      .myrect {
        stroke: #000000;
        height: 19px;
        stroke-width: nonepx;
        fill: #ffffdd;
      }
    </style>
  </defs>
  <rect x="0px" y="0px" height="260px" width="450px" color="url(#main_group)" id="background_rect" fill="#dddddd"></rect>
  <g id="main_group" transform="translate(0,-70) rotate(0)">
    <rect id="rect0" x="40px" rx="20" y="80px" width="330px" height="227px" fill="#ddffdd" ry="20"></rect>

    <path class="mypath" id="tanh" d="M60,325 v-50 c0,0 1,-9 10,-10 h165 c0,0 9,-1 10,-10 v-60 c0,0 1,-9,10,-10 h185" marker-end="url(#arrow)"></path>
    <g id="At" transform="translate(380,180) rotate(0)">
      <text class="txt20" id="text13" x="0px" y="0px">a</text>
      <text class="txt12" id="text14" x="7px" y="0px">t</text>
    </g>

    <path class="mypath" id="ct1" d="M0,185 h50 c0,0 9,1 10,10 v60 c0,0 1,9 10,10"></path>
    <g id="At1" transform="translate(6,180) rotate(0)">
      <text class="txt20" id="text9" x="0px" y="0px">a</text>
      <text class="txt12" id="text10" x="14px" y="0px">t-1</text>
    </g>

    <g id="Xt" transform="translate(45,321) rotate(0)">
      <text id="text11" x="0px" class="txt20" y="0px">x</text>
      <text id="text12" x="7px" class="txt12" y="0px">t</text>
    </g>
    <g id="tanh" transform="translate(220,225) rotate(0)">
      <rect width="46px" class="myrect" x="0px" y="0px"></rect>
      <text class="txt16" x="22px" y="15px">tanh</text>
    </g>

    <path class="mypath" id="softmax" d="M400,185 c0,0 9,-1 10,-10 v-80" marker-end="url(#arrow)"></path>
    <g id="softmax" transform="translate(390,135) rotate(0)">
      <rect width="60px" class="myrect" x="-8px" y="0px"></rect>
      <text class="txt16" x="22px" y="15px">softmax</text>
    </g>
    <g id="yhat" transform="translate(420,105) rotate(0)">
      <text id="text11" x="0px" class="txt20" y="0px">y</text>
      <text id="text12" x="12px" class="txt12" y="7px">hat</text>
    </g>

  </g>
</svg>
